<?xml version="1.0" encoding="UTF-8" standalone="no"?>
<!-- Created with Inkscape (http://www.inkscape.org/) -->

<svg
   width="256"
   height="256"
   viewBox="0 0 67.733332 67.733335"
   version="1.1"
   id="svg5"
   inkscape:version="1.1 (c68e22c387, 2021-05-23)"
   sodipodi:docname="back.svg"
   inkscape:export-filename="C:\Users\lukas\Desktop\Projekty\Winpinator\res\back.png"
   inkscape:export-xdpi="18"
   inkscape:export-ydpi="18"
   xmlns:inkscape="http://www.inkscape.org/namespaces/inkscape"
   xmlns:sodipodi="http://sodipodi.sourceforge.net/DTD/sodipodi-0.dtd"
   xmlns="http://www.w3.org/2000/svg"
   xmlns:svg="http://www.w3.org/2000/svg">
  <sodipodi:namedview
     id="namedview7"
     pagecolor="#ffffff"
     bordercolor="#666666"
     borderopacity="1.0"
     inkscape:pageshadow="2"
     inkscape:pageopacity="0.0"
     inkscape:pagecheckerboard="0"
     inkscape:document-units="px"
     showgrid="false"
     units="px"
     width="256px"
     inkscape:zoom="1.5644531"
     inkscape:cx="137.10862"
     inkscape:cy="169.70787"
     inkscape:window-width="1600"
     inkscape:window-height="837"
     inkscape:window-x="-8"
     inkscape:window-y="-8"
     inkscape:window-maximized="1"
     inkscape:current-layer="layer1" />
  <defs
     id="defs2">
    <filter
       style="color-interpolation-filters:sRGB;"
       inkscape:label="Drop Shadow"
       id="filter14544"
       x="-0.029396324"
       y="-0.029396324"
       width="1.0587926"
       height="1.0780402">
      <feFlood
         flood-opacity="0.592157"
         flood-color="rgb(0,0,0)"
         result="flood"
         id="feFlood14534" />
      <feComposite
         in="flood"
         in2="SourceGraphic"
         operator="in"
         result="composite1"
         id="feComposite14536" />
      <feGaussianBlur
         in="composite1"
         stdDeviation="0.7"
         result="blur"
         id="feGaussianBlur14538" />
      <feOffset
         dx="-4.16334e-16"
         dy="1.1"
         result="offset"
         id="feOffset14540" />
      <feComposite
         in="SourceGraphic"
         in2="offset"
         operator="over"
         result="composite2"
         id="feComposite14542" />
    </filter>
  </defs>
  <g
     inkscape:label="Warstwa 1"
     inkscape:groupmode="layer"
     id="layer1">
    <circle
       style="font-variation-settings:normal;opacity:1;fill:#93bad2;fill-opacity:1;stroke:#669bbc;stroke-width:3.175;stroke-linecap:butt;stroke-linejoin:round;stroke-miterlimit:4;stroke-dasharray:none;stroke-dashoffset:0;stroke-opacity:1;paint-order:normal;stop-color:#000000;stop-opacity:1"
       id="path1326"
       cx="33.866665"
       cy="33.866665"
       r="24.691803" />
    <path
       id="path1879"
       style="color:#000000;fill:#ffffff;fill-opacity:1;stroke:#83adc9;stroke-width:2.64583;stroke-linecap:square;stroke-linejoin:round;stroke-miterlimit:4;stroke-dasharray:none;stroke-opacity:1"
       d="M 34.068234,18.926768 A 3.96875,3.96875 0 0 0 31.616702,19.85281 L 18.522929,30.8294 a 3.96875,3.96875 0 0 0 -0.10387,0.09819 3.96875,3.96875 0 0 0 -0.10852,0.09818 3.96875,3.96875 0 0 0 -0.08423,0.08475 3.96875,3.96875 0 0 0 -0.128674,0.142111 3.96875,3.96875 0 0 0 -0.06511,0.06925 3.96875,3.96875 0 0 0 -0.04806,0.0646 3.96875,3.96875 0 0 0 -0.0801,0.09973 3.96875,3.96875 0 0 0 -0.106453,0.152447 3.96875,3.96875 0 0 0 -0.0987,0.153996 3.96875,3.96875 0 0 0 -0.07183,0.112654 3.96875,3.96875 0 0 0 -0.07235,0.141076 3.96875,3.96875 0 0 0 -0.08527,0.176217 3.96875,3.96875 0 0 0 -0.11007,0.263033 3.96875,3.96875 0 0 0 -0.06253,0.184484 3.96875,3.96875 0 0 0 -0.05374,0.164332 3.96875,3.96875 0 0 0 -0.02067,0.09715 3.96875,3.96875 0 0 0 -0.0016,0.0067 3.96875,3.96875 0 0 0 -0.04186,0.198437 3.96875,3.96875 0 0 0 -0.03514,0.190169 3.96875,3.96875 0 0 0 -0.01034,0.10232 3.96875,3.96875 0 0 0 -0.01447,0.181382 3.96875,3.96875 0 0 0 -0.01137,0.213424 3.96875,3.96875 0 0 0 -0.0031,0.04651 3.96875,3.96875 0 0 0 0.0036,0.05736 3.96875,3.96875 0 0 0 0.0083,0.163298 3.96875,3.96875 0 0 0 0.01809,0.234093 3.96875,3.96875 0 0 0 0.01085,0.09767 3.96875,3.96875 0 0 0 0.02687,0.14573 3.96875,3.96875 0 0 0 0.05219,0.25218 3.96875,3.96875 0 0 0 0.01964,0.0894 3.96875,3.96875 0 0 0 0.04237,0.129191 3.96875,3.96875 0 0 0 0.08268,0.242879 3.96875,3.96875 0 0 0 0.03617,0.102836 3.96875,3.96875 0 0 0 0.02739,0.05633 3.96875,3.96875 0 0 0 0.02481,0.05168 3.96875,3.96875 0 0 0 0.11007,0.227375 3.96875,3.96875 0 0 0 0.05736,0.111623 3.96875,3.96875 0 0 0 0.06201,0.0987 3.96875,3.96875 0 0 0 0.127124,0.195855 3.96875,3.96875 0 0 0 0.08785,0.12609 3.96875,3.96875 0 0 0 0.07183,0.0894 3.96875,3.96875 0 0 0 0.0584,0.07906 3.96875,3.96875 0 0 0 0.07596,0.08062 3.96875,3.96875 0 0 0 0.117822,0.128672 3.96875,3.96875 0 0 0 0.08733,0.08733 3.96875,3.96875 0 0 0 0.128675,0.117306 3.96875,3.96875 0 0 0 0.08062,0.07648 L 31.616702,47.888307 A 3.96875,3.96875 0 0 0 37.20861,47.39583 3.96875,3.96875 0 0 0 36.716133,41.805991 l -4.732012,-3.966684 h 14.675591 a 3.96875,3.96875 0 0 0 3.96875,-3.96875 3.96875,3.96875 0 0 0 -3.96875,-3.96875 H 31.984121 l 4.732012,-3.966682 A 3.96875,3.96875 0 0 0 37.20861,20.345286 3.96875,3.96875 0 0 0 34.513167,18.94072 3.96875,3.96875 0 0 0 34.068234,18.92677 Z" />
  </g>
</svg>
