<?xml version="1.0" encoding="UTF-8" standalone="no"?>
<!-- Created with Inkscape (http://www.inkscape.org/) -->

<svg
   width="200"
   height="160"
   viewBox="0 0 52.916665 42.333334"
   version="1.1"
   id="svg5"
   inkscape:export-filename="C:\Users\lukas\Desktop\Projekty\Winpinator\res\blot.png"
   inkscape:export-xdpi="96"
   inkscape:export-ydpi="96"
   inkscape:version="1.1 (c68e22c387, 2021-05-23)"
   sodipodi:docname="blot.svg"
   xmlns:inkscape="http://www.inkscape.org/namespaces/inkscape"
   xmlns:sodipodi="http://sodipodi.sourceforge.net/DTD/sodipodi-0.dtd"
   xmlns="http://www.w3.org/2000/svg"
   xmlns:svg="http://www.w3.org/2000/svg">
  <sodipodi:namedview
     id="namedview7"
     pagecolor="#ffffff"
     bordercolor="#d03f3f"
     borderopacity="1"
     inkscape:pageshadow="2"
     inkscape:pageopacity="0.0"
     inkscape:pagecheckerboard="0"
     inkscape:document-units="mm"
     showgrid="false"
     units="px"
     inkscape:zoom="1.2044332"
     inkscape:cx="-56.042958"
     inkscape:cy="2.9059311"
     inkscape:window-width="1600"
     inkscape:window-height="837"
     inkscape:window-x="-8"
     inkscape:window-y="-8"
     inkscape:window-maximized="1"
     inkscape:current-layer="layer1"
     borderlayer="true" />
  <defs
     id="defs2" />
  <g
     inkscape:label="Warstwa 1"
     inkscape:groupmode="layer"
     id="layer1">
    <g
       id="g1028"
       transform="translate(-10.407336,-1.5120042)">
      <circle
         style="opacity:0.5;fill:#000000;stroke-width:12.0902;stroke-linecap:round;stroke-opacity:0.388788;paint-order:stroke fill markers"
         id="circle1006"
         cx="47.998009"
         cy="22.678671"
         r="35.726677" />
      <circle
         style="fill:#000000;stroke-width:9.67218;stroke-linecap:round;stroke-opacity:0.388788;paint-order:stroke fill markers"
         id="path924"
         cx="47.998009"
         cy="22.678671"
         r="28.581341" />
    </g>
    <path
       id="path12014"
       style="color:#000000;fill:#ffffff;fill-opacity:1;stroke-width:0.617335;stroke-linejoin:round;-inkscape-stroke:none"
       d="m 42.759594,7.0976906 a 2.2425543,2.2425543 0 0 0 -2.242373,2.2423719 2.2425543,2.2425543 0 0 0 0.354748,1.2081185 l -3.983566,5.067906 c -0.906807,-0.528072 -1.959149,-0.831357 -3.079474,-0.831357 -1.371557,0 -2.641313,0.453964 -3.666463,1.219284 l -3.675079,-3.675078 c 0.259011,-0.488345 0.406109,-1.044129 0.406109,-1.632731 0,-1.9286583 -1.577658,-3.5063183 -3.506318,-3.5063183 -1.928657,0 -3.506317,1.57766 -3.506317,3.5063183 0,1.928658 1.57766,3.506318 3.506317,3.506318 0.447345,0 0.875741,-0.08514 1.270008,-0.239582 l 3.868083,3.868083 c -0.536889,0.912414 -0.845714,1.973767 -0.845714,3.104356 0,0.974497 0.229691,1.897241 0.636758,2.717708 l -4.280254,2.471427 c -0.523127,-0.620351 -1.305369,-1.01607 -2.175378,-1.01607 -1.564582,0 -2.844356,1.279773 -2.844356,2.844356 0,1.564584 1.279774,2.845314 2.844356,2.845314 1.564584,0 2.845633,-1.28073 2.845633,-2.845314 0,-0.107648 -0.006,-0.214072 -0.01787,-0.318698 l 4.543762,-2.623597 c 1.12819,1.270602 2.772139,2.073929 4.596718,2.073929 1.260238,0 2.434445,-0.383336 3.412208,-1.039038 l 0.997248,1.091039 1.204287,-1.10316 -0.97651,-1.067751 c 0.941457,-1.080885 1.513099,-2.491314 1.513099,-4.030145 0,-1.679376 -0.680765,-3.206184 -1.780117,-4.318535 l 4.01515,-5.108102 a 2.2425543,2.2425543 0 0 0 0.565299,0.07401 2.2425543,2.2425543 0 0 0 2.24269,-2.2426887 2.2425543,2.2425543 0 0 0 -2.242689,-2.2423719 z M 23.367178,8.4969004 c 1.222469,0 2.199305,0.9768362 2.199305,2.1993046 0,1.222469 -0.976836,2.199306 -2.199305,2.199306 -1.222467,0 -2.199303,-0.976837 -2.199302,-2.199306 0,-1.2224684 0.976835,-2.1993046 2.199302,-2.1993046 z m 10.441751,8.2485086 c 2.325671,0 4.189973,1.864301 4.189973,4.189971 0,2.32567 -1.864302,4.189971 -4.189973,4.189971 -2.325668,0 -4.189971,-1.864301 -4.189971,-4.189971 0,-2.32567 1.864303,-4.189971 4.189971,-4.189971 z m -11.968248,9.506073 c 0.94667,0 1.702595,0.75465 1.702595,1.701319 0,0.946669 -0.755925,1.702275 -1.702595,1.702275 -0.946668,0 -1.701318,-0.755606 -1.701318,-1.702275 0,-0.946669 0.75465,-1.701319 1.701318,-1.701319 z m 18.685473,0.986082 -1.204608,1.103481 1.103162,1.204291 1.204608,-1.103163 z m -8.941731,0.215975 -0.21119,0.788609 0.788611,0.212148 0.212146,-0.789887 z m -0.422059,1.578177 -0.212148,0.788611 0.789568,0.210872 0.211189,-0.788292 z m 11.568837,0.616341 -1.204288,1.101888 1.016706,1.111135 a 2.2425543,2.2425543 0 0 0 -0.234797,0.996929 2.2425543,2.2425543 0 0 0 2.242691,2.242692 2.2425543,2.2425543 0 0 0 2.242372,-2.242692 2.2425543,2.2425543 0 0 0 -2.242372,-2.242372 2.2425543,2.2425543 0 0 0 -0.7985,0.147705 z m -11.992175,0.960881 -0.21087,0.788611 0.788611,0.212145 0.21087,-0.789886 z m -0.376439,1.497785 a 1.5644895,1.5644895 0 0 0 -1.56446,1.564461 1.5644895,1.5644895 0 0 0 1.56446,1.564459 1.5644895,1.5644895 0 0 0 1.564461,-1.564459 1.5644895,1.5644895 0 0 0 -1.564461,-1.564461 z" />
  </g>
</svg>
