<?xml version="1.0" encoding="UTF-8" standalone="no"?>
<!-- Created with Inkscape (http://www.inkscape.org/) -->

<svg
   width="256"
   height="256"
   viewBox="0 0 67.733332 67.733335"
   version="1.1"
   id="svg5"
   inkscape:version="1.1 (c68e22c387, 2021-05-23)"
   sodipodi:docname="icon.svg"
   inkscape:export-filename="C:\Users\lukas\Desktop\Projekty\Winpinator\res\icon256.png"
   inkscape:export-xdpi="96"
   inkscape:export-ydpi="96"
   xmlns:inkscape="http://www.inkscape.org/namespaces/inkscape"
   xmlns:sodipodi="http://sodipodi.sourceforge.net/DTD/sodipodi-0.dtd"
   xmlns:xlink="http://www.w3.org/1999/xlink"
   xmlns="http://www.w3.org/2000/svg"
   xmlns:svg="http://www.w3.org/2000/svg">
  <sodipodi:namedview
     id="namedview7"
     pagecolor="#ffffff"
     bordercolor="#666666"
     borderopacity="1.0"
     inkscape:pageshadow="2"
     inkscape:pageopacity="0.0"
     inkscape:pagecheckerboard="0"
     inkscape:document-units="px"
     showgrid="false"
     units="px"
     width="256px"
     inkscape:zoom="1.2044332"
     inkscape:cx="215.45404"
     inkscape:cy="123.29451"
     inkscape:window-width="1600"
     inkscape:window-height="837"
     inkscape:window-x="-8"
     inkscape:window-y="-8"
     inkscape:window-maximized="1"
     inkscape:current-layer="layer1" />
  <defs
     id="defs2">
    <linearGradient
       inkscape:collect="always"
       id="linearGradient14939">
      <stop
         style="stop-color:#471390;stop-opacity:1"
         offset="0"
         id="stop14935" />
      <stop
         style="stop-color:#6b1cda;stop-opacity:1"
         offset="1"
         id="stop14937" />
    </linearGradient>
    <linearGradient
       inkscape:collect="always"
       id="linearGradient1188">
      <stop
         style="stop-color:#377cc8;stop-opacity:1"
         offset="0"
         id="stop1184" />
      <stop
         style="stop-color:#8a47e7;stop-opacity:1"
         offset="1"
         id="stop1186" />
    </linearGradient>
    <linearGradient
       inkscape:collect="always"
       xlink:href="#linearGradient1188"
       id="linearGradient1190"
       x1="15.067337"
       y1="7.4560018"
       x2="31.935116"
       y2="57.022957"
       gradientUnits="userSpaceOnUse"
       gradientTransform="translate(1.0760922e-6,-1.5553653)" />
    <filter
       inkscape:collect="always"
       style="color-interpolation-filters:sRGB"
       id="filter13997"
       x="-0.025181764"
       y="-0.024591632"
       width="1.0503635"
       height="1.0491833">
      <feGaussianBlur
         inkscape:collect="always"
         stdDeviation="0.47245458"
         id="feGaussianBlur13999" />
    </filter>
    <filter
       style="color-interpolation-filters:sRGB;"
       inkscape:label="Drop Shadow"
       id="filter14544"
       x="-0.029396324"
       y="-0.029396324"
       width="1.0587926"
       height="1.0780402">
      <feFlood
         flood-opacity="0.592157"
         flood-color="rgb(0,0,0)"
         result="flood"
         id="feFlood14534" />
      <feComposite
         in="flood"
         in2="SourceGraphic"
         operator="in"
         result="composite1"
         id="feComposite14536" />
      <feGaussianBlur
         in="composite1"
         stdDeviation="0.7"
         result="blur"
         id="feGaussianBlur14538" />
      <feOffset
         dx="-4.16334e-16"
         dy="1.1"
         result="offset"
         id="feOffset14540" />
      <feComposite
         in="SourceGraphic"
         in2="offset"
         operator="over"
         result="composite2"
         id="feComposite14542" />
    </filter>
    <linearGradient
       inkscape:collect="always"
       xlink:href="#linearGradient14939"
       id="linearGradient14613"
       x1="34.159393"
       y1="60.08099"
       x2="34.159393"
       y2="64.144974"
       gradientUnits="userSpaceOnUse"
       gradientTransform="translate(1.0760922e-6,-1.0261986)" />
  </defs>
  <g
     inkscape:label="Warstwa 1"
     inkscape:groupmode="layer"
     id="layer1">
    <rect
       style="opacity:1;fill:url(#linearGradient14613);fill-opacity:1;stroke-width:15.2793;stroke-linecap:round;stroke-opacity:0.388788;paint-order:stroke fill markers;filter:url(#filter14544)"
       id="rect1074"
       width="57.150002"
       height="57.150002"
       x="5.2916675"
       y="6.1175513"
       rx="5.052515"
       ry="5.052515" />
    <path
       id="rect850"
       style="opacity:1;fill:url(#linearGradient1190);stroke:#ffffff;stroke-width:0.396875;stroke-linejoin:round;stroke-opacity:0.27051;stroke-miterlimit:4;stroke-dasharray:none"
       d="m 10.344183,4.0008847 h 47.044971 c 2.799093,0 5.052515,2.2534217 5.052515,5.0525147 V 54.510872 c 0,2.799093 -2.253422,5.052515 -5.052515,5.052515 H 10.344183 c -2.7990937,0 -5.0525154,-2.253422 -5.0525154,-5.052515 V 9.0533994 c 0,-2.799093 2.2534217,-5.0525147 5.0525154,-5.0525147 z"
       sodipodi:nodetypes="sssssssss" />
    <path
       id="path13952"
       style="color:#000000;opacity:0.3659;mix-blend-mode:normal;fill:#000000;stroke-width:1;stroke-linejoin:round;-inkscape-stroke:none;filter:url(#filter13997)"
       d="m 50.014518,9.4800414 a 3.6326323,3.6326323 0 0 0 -3.632338,3.6323366 3.6326323,3.6326323 0 0 0 0.02429,0.252698 3.6326323,3.6326323 0 0 0 -0.02429,0.276469 3.6326323,3.6326323 0 0 0 0.410313,1.637109 l -6.288505,8.000029 c -1.468903,-0.855408 -3.173553,-1.346688 -4.988327,-1.346688 -2.221736,0 -4.278569,0.735361 -5.939171,1.975073 l -5.781043,-5.781043 c 0.311221,-0.700986 0.485758,-1.474627 0.485758,-2.287715 0,-0.09763 -0.0023,-0.194479 -0.0072,-0.290938 -9e-6,-1.73e-4 9e-6,-3.44e-4 0,-5.3e-4 0.0033,-0.07902 0.0072,-0.15791 0.0072,-0.237711 0,-3.124164 -2.555593,-5.6797572 -5.679757,-5.6797572 -3.124163,0 -5.679756,2.5555932 -5.679756,5.6797572 0,0.08879 0.0026,0.17676 0.0067,0.264583 -0.0041,0.08782 -0.0067,0.175796 -0.0067,0.264583 0,3.124164 2.555593,5.679757 5.679756,5.679757 0.724636,0 1.418581,-0.137916 2.057239,-0.38809 l 6.076114,6.076114 c -0.751762,1.399397 -1.180289,2.995993 -1.180289,4.68912 0,0.09607 0.0014,0.191892 0.0041,0.287322 7.3e-5,0.0026 -7.6e-5,0.0052 0,0.0078 -0.0018,0.07791 -0.0041,0.155768 -0.0041,0.234095 0,1.415701 0.301318,2.762959 0.838709,3.984771 l -6.740674,3.891751 c -0.847396,-1.004883 -2.11452,-1.645894 -3.523816,-1.645894 -2.534412,0 -4.607471,2.073058 -4.607471,4.60747 0,0.08886 0.0032,0.176927 0.0083,0.264583 -0.005,0.08765 -0.0083,0.175726 -0.0083,0.264584 0,2.534412 2.073059,4.60902 4.607471,4.60902 2.534412,0 4.609538,-2.074608 4.609538,-4.60902 0,-0.09034 -0.0026,-0.180084 -0.0078,-0.269235 0.0049,-0.08612 0.0078,-0.172659 0.0078,-0.259932 0,-0.0013 1e-6,-0.0024 0,-0.0036 l 7.331334,-4.233333 c 1.827517,2.058202 4.49049,3.359483 7.446058,3.359483 2.041414,0 3.943471,-0.62095 5.527312,-1.683101 l 1.615406,1.767334 1.950783,-1.786969 -0.263549,-0.287838 0.263549,-0.241329 -1.350822,-1.476915 c 1.386612,-1.711878 2.220021,-3.887999 2.220021,-6.251813 0,-0.08475 -0.0041,-0.168441 -0.0062,-0.252698 0.0026,-0.09202 0.0062,-0.183862 0.0062,-0.276468 0,-2.602132 -1.010425,-4.976546 -2.656687,-6.755143 l 6.277137,-7.985559 a 3.6326323,3.6326323 0 0 0 0.915707,0.119889 3.6326323,3.6326323 0 0 0 3.632853,-3.632853 3.6326323,3.6326323 0 0 0 -0.01704,-0.195337 3.6326323,3.6326323 0 0 0 0.01704,-0.33383 3.6326323,3.6326323 0 0 0 -3.632853,-3.6323363 z m -31.41307,2.7956956 c 1.891107,0 3.418505,1.443379 3.552238,3.29799 -0.133733,1.85461 -1.661131,3.297989 -3.552238,3.297989 -1.891105,0 -3.418505,-1.443379 -3.552238,-3.297989 0.133734,-1.854611 1.661133,-3.29799 3.552238,-3.29799 z m 16.914213,13.361458 c 3.678496,0 6.642727,2.879726 6.780466,6.5226 -0.137739,3.64287 -3.10197,6.522598 -6.780466,6.522598 -3.678494,0 -6.642727,-2.879728 -6.780464,-6.522598 0.137737,-3.642874 3.10197,-6.5226 6.780464,-6.5226 z m -19.38693,15.398542 c 1.444094,0 2.613557,1.084289 2.745052,2.491322 -0.131495,1.407192 -1.300958,2.49287 -2.745052,2.49287 -1.444093,0 -2.611704,-1.085678 -2.742985,-2.49287 0.131281,-1.407033 1.298892,-2.491322 2.742985,-2.491322 z m 30.267919,1.068152 -1.951302,1.787488 0.263552,0.287838 -0.263552,0.241329 1.786972,1.950786 1.951302,-1.786972 -0.263551,-0.287838 0.263551,-0.241329 z m -14.484387,0.349851 -0.342098,1.27744 0.132292,0.03566 -0.132292,0.493508 1.277443,0.343649 0.343648,-1.279509 -0.13281,-0.03565 0.13281,-0.493512 z m -0.683678,2.556433 -0.343649,1.27744 0.132808,0.03566 -0.132808,0.493509 1.278991,0.341582 0.342098,-1.276924 -0.132291,-0.03566 0.132291,-0.493509 z m 18.73994,0.998387 -1.950783,1.784905 0.263548,0.287838 -0.263548,0.241329 1.498615,1.637625 a 3.6326323,3.6326323 0 0 0 -0.232029,1.247987 3.6326323,3.6326323 0 0 0 0.0217,0.249597 3.6326323,3.6326323 0 0 0 -0.0217,0.279569 3.6326323,3.6326323 0 0 0 3.632854,3.632854 3.6326323,3.6326323 0 0 0 3.632337,-3.632854 3.6326323,3.6326323 0 0 0 -0.01704,-0.195336 3.6326323,3.6326323 0 0 0 0.01704,-0.33383 3.6326323,3.6326323 0 0 0 -3.632337,-3.632338 3.6326323,3.6326323 0 0 0 -1.293461,0.239263 z m -19.425687,1.556496 -0.341582,1.27744 0.131776,0.03566 -0.131776,0.493508 1.277442,0.343649 0.34158,-1.279509 -0.131773,-0.03514 0.131773,-0.494028 z m -0.609782,2.426208 a 2.5342596,2.5342596 0 0 0 -2.534211,2.534211 2.5342596,2.5342596 0 0 0 0.02997,0.264583 2.5342596,2.5342596 0 0 0 -0.02997,0.264583 2.5342596,2.5342596 0 0 0 2.534211,2.534214 2.5342596,2.5342596 0 0 0 2.534213,-2.534214 2.5342596,2.5342596 0 0 0 -0.02997,-0.264583 2.5342596,2.5342596 0 0 0 0.02997,-0.264583 2.5342596,2.5342596 0 0 0 -2.534213,-2.534211 z"
       transform="matrix(1.0348916,0,0,1.0348916,-1.3562707,-1.8874912)" />
    <path
       id="path12014"
       style="color:#000000;fill:#ffffff;fill-opacity:1;stroke-width:1.03489;stroke-linejoin:round;-inkscape-stroke:none"
       d="m 50.403332,8.7690922 a 3.7593806,3.7593806 0 0 0 -3.759077,3.7590748 3.7593806,3.7593806 0 0 0 0.594694,2.025269 l -6.677984,8.495754 c -1.520156,-0.885253 -3.284284,-1.393676 -5.162378,-1.393676 -2.299256,0 -4.427853,0.761019 -6.146398,2.043987 l -6.16084,-6.160839 c 0.434201,-0.818653 0.680794,-1.750358 0.680794,-2.737081 0,-3.23317 -2.644761,-5.8779328 -5.877933,-5.8779328 -3.233169,0 -5.877931,2.6447628 -5.877931,5.8779328 0,3.233171 2.644762,5.877932 5.877931,5.877932 0.74992,0 1.468078,-0.142727 2.12902,-0.401631 l 6.48439,6.48439 c -0.900032,1.529556 -1.417742,3.30879 -1.417742,5.204091 0,1.633629 0.385051,3.180501 1.06745,4.555918 l -7.175344,4.143059 c -0.876963,-1.039946 -2.188299,-1.703322 -3.646768,-1.703322 -2.622841,0 -4.768232,2.14539 -4.768232,4.768231 0,2.622841 2.145391,4.769836 4.768232,4.769836 2.622842,0 4.770372,-2.146995 4.770372,-4.769836 0,-0.180458 -0.01014,-0.358867 -0.02995,-0.534259 l 7.617085,-4.398155 c 1.891281,2.130016 4.647169,3.476701 7.705862,3.476701 2.112642,0 4.081065,-0.642619 5.720169,-1.741827 l 1.671769,1.828999 2.018849,-1.84932 -1.637005,-1.789958 c 1.578242,-1.811978 2.536532,-4.176397 2.536532,-6.756067 0,-2.815279 -1.141223,-5.374795 -2.984157,-7.239521 l 6.73093,-8.563138 a 3.7593806,3.7593806 0 0 0 0.947658,0.124072 3.7593806,3.7593806 0 0 0 3.759609,-3.759609 3.7593806,3.7593806 0 0 0 -3.759607,-3.7590748 z M 17.89421,11.114704 c 2.049326,0 3.686878,1.637552 3.686878,3.686877 0,2.049326 -1.637552,3.686878 -3.686878,3.686878 -2.049324,0 -3.686877,-1.637552 -3.686876,-3.686878 0,-2.049325 1.637552,-3.686877 3.686876,-3.686877 z m 17.504377,13.82766 c 3.898715,0 7.023999,3.125283 7.023999,7.023999 0,3.898713 -3.125284,7.023997 -7.023999,7.023997 -3.898712,0 -7.023998,-3.125284 -7.023998,-7.023997 0,-3.898716 3.125286,-7.023999 7.023998,-7.023999 z M 15.335216,40.878186 c 1.586981,0 2.854201,1.265083 2.854201,2.852063 0,1.586981 -1.26722,2.853665 -2.854201,2.853665 -1.586978,0 -2.852062,-1.266684 -2.852062,-2.853665 0,-1.58698 1.265084,-2.852063 2.852062,-2.852063 z m 31.324015,1.653051 -2.019386,1.849856 1.849322,2.018854 2.019386,-1.849323 z m -14.98977,0.362058 -0.354034,1.322012 1.322014,0.355639 0.355638,-1.324153 z m -0.707533,2.645631 -0.355639,1.322012 1.323617,0.353501 0.354034,-1.321478 z m 19.393806,1.033222 -2.018848,1.847185 1.704388,1.86269 a 3.7593806,3.7593806 0 0 0 -0.393609,1.671235 3.7593806,3.7593806 0 0 0 3.759609,3.75961 3.7593806,3.7593806 0 0 0 3.759075,-3.75961 3.7593806,3.7593806 0 0 0 -3.759075,-3.759075 3.7593806,3.7593806 0 0 0 -1.338592,0.24761 z m -20.10348,1.610805 -0.3535,1.322012 1.322014,0.355639 0.353499,-1.324153 z m -0.631058,2.510862 a 2.6226839,2.6226839 0 0 0 -2.622634,2.622634 2.6226839,2.6226839 0 0 0 2.622634,2.622635 2.6226839,2.6226839 0 0 0 2.622636,-2.622635 2.6226839,2.6226839 0 0 0 -2.622636,-2.622634 z" />
  </g>
</svg>
