<?xml version="1.0" encoding="UTF-8" standalone="no"?>
<!-- Created with Inkscape (http://www.inkscape.org/) -->

<svg
   width="16"
   height="16"
   viewBox="0 0 4.2333333 4.2333335"
   version="1.1"
   id="svg5"
   inkscape:export-filename="C:\Users\lukas\Desktop\Projekty\Winpinator\art\spinner40.png"
   inkscape:export-xdpi="240"
   inkscape:export-ydpi="240"
   inkscape:version="1.1 (c68e22c387, 2021-05-23)"
   sodipodi:docname="spinner.svg"
   xmlns:inkscape="http://www.inkscape.org/namespaces/inkscape"
   xmlns:sodipodi="http://sodipodi.sourceforge.net/DTD/sodipodi-0.dtd"
   xmlns="http://www.w3.org/2000/svg"
   xmlns:svg="http://www.w3.org/2000/svg">
  <sodipodi:namedview
     id="namedview7"
     pagecolor="#ffffff"
     bordercolor="#666666"
     borderopacity="1.0"
     inkscape:pageshadow="2"
     inkscape:pageopacity="0.0"
     inkscape:pagecheckerboard="0"
     inkscape:document-units="px"
     showgrid="false"
     units="px"
     inkscape:zoom="32"
     inkscape:cx="8.890625"
     inkscape:cy="9.046875"
     inkscape:window-width="1600"
     inkscape:window-height="837"
     inkscape:window-x="-8"
     inkscape:window-y="-8"
     inkscape:window-maximized="1"
     inkscape:current-layer="layer1" />
  <defs
     id="defs2" />
  <g
     inkscape:label="Warstwa 1"
     inkscape:groupmode="layer"
     id="layer1">
    <path
       id="path846"
       style="fill:#4487e9;fill-opacity:1;stroke:none;stroke-width:0;stroke-linejoin:round;stroke-miterlimit:4;stroke-dasharray:none;paint-order:markers fill stroke;stop-color:#000000"
       d="M 8 0 A 8.0000004 8.0000004 0 0 0 0 8 A 8.0000004 8.0000004 0 0 0 8 16 A 8.0000004 8.0000004 0 0 0 16 8 A 8.0000004 8.0000004 0 0 0 8 0 z M 8 2.6914062 A 5.3085974 5.3085974 0 0 1 13.308594 8 A 5.3085974 5.3085974 0 0 1 8 13.308594 A 5.3085974 5.3085974 0 0 1 2.6914062 8 A 5.3085974 5.3085974 0 0 1 8 2.6914062 z "
       transform="scale(0.26458334)" />
    <path
       id="circle1434"
       style="fill:#8ebcff;fill-opacity:1;stroke:none;stroke-width:0;stroke-linejoin:round;stroke-miterlimit:4;stroke-dasharray:none;paint-order:markers fill stroke;stop-color:#000000"
       d="M 1.0722656 4 A 8.0000004 8.0000004 0 0 0 1.0722656 12 L 3.4023438 10.654297 A 5.3085974 5.3085974 0 0 1 2.6914062 8 A 5.3085974 5.3085974 0 0 1 3.4023438 5.3457031 L 1.0722656 4 z "
       transform="scale(0.26458334)" />
  </g>
</svg>
